<svg width="306" height="306" viewBox="0 0 306 306" fill="none" xmlns="http://www.w3.org/2000/svg">
<path fill-rule="evenodd" clip-rule="evenodd" d="M197.675 141.808C199.414 146.047 199.752 147.944 201.322 151.256C202.597 153.946 204.087 155.933 206.101 157.395C210.225 160.389 215.438 160.5 221.744 160.5H259.993C259.993 131.838 248.721 104.348 228.657 84.0811C208.589 63.8139 181.376 52.4258 153.001 52.4258C124.623 52.4258 97.4107 63.8139 77.3425 84.0811C57.2777 104.348 46.0066 131.838 46.0066 160.5H84.2549C90.5612 160.5 95.7745 160.389 99.8981 157.395C101.915 155.933 103.406 153.946 104.677 151.256C106.247 147.944 106.589 146.047 108.324 141.808C115.809 123.555 133.44 111.655 153.001 111.655C172.559 111.655 190.19 123.555 197.675 141.808Z" fill="#7655D2"/>
<path fill-rule="evenodd" clip-rule="evenodd" d="M65.1371 252.636C54.5892 252.697 46.0057 244.164 46.0057 233.616L46.0057 192.68C46.0057 192.68 110.201 201.147 121.971 164.769C133.74 128.392 173.327 129.345 184.027 165.054C194.726 200.763 259.992 192.68 259.992 192.68L259.992 233.191C259.992 243.696 251.476 252.212 240.971 252.212L228.673 252.212C196.924 252.212 171.187 226.475 171.187 194.727L138.14 194.727C138.14 226.529 112.458 252.361 80.6562 252.546L65.1371 252.636Z" fill="#7655D2"/>
</svg>
